<svg width="8" height="14" viewBox="0 0 8 14" fill="none" xmlns="http://www.w3.org/2000/svg">
<path fill-rule="evenodd" clip-rule="evenodd" d="M7.35402 0.645917C7.30758 0.599354 7.2524 0.562411 7.19166 0.537205C7.13091 0.511998 7.06579 0.499023 7.00002 0.499023C6.93425 0.499023 6.86913 0.511998 6.80839 0.537205C6.74764 0.562411 6.69247 0.599354 6.64602 0.645917L0.646022 6.64592C0.599459 6.69236 0.562516 6.74754 0.53731 6.80828C0.512103 6.86903 0.499128 6.93415 0.499128 6.99992C0.499128 7.06568 0.512103 7.13081 0.53731 7.19155C0.562516 7.2523 0.599459 7.30747 0.646022 7.35392L6.64602 13.3539C6.73991 13.4478 6.86725 13.5005 7.00002 13.5005C7.1328 13.5005 7.26014 13.4478 7.35402 13.3539C7.44791 13.26 7.50065 13.1327 7.50065 12.9999C7.50065 12.8671 7.44791 12.7398 7.35402 12.6459L1.70702 6.99992L7.35402 1.35392C7.40059 1.30747 7.43753 1.2523 7.46273 1.19155C7.48794 1.13081 7.50092 1.06568 7.50092 0.999917C7.50092 0.93415 7.48794 0.869029 7.46273 0.808284C7.43753 0.747539 7.40059 0.692363 7.35402 0.645917Z" fill="#E1317F"/>
</svg>
