<svg width="8" height="14" viewBox="0 0 8 14" fill="none" xmlns="http://www.w3.org/2000/svg">
<path fill-rule="evenodd" clip-rule="evenodd" d="M0.646001 0.645917C0.692447 0.599354 0.747622 0.562411 0.808367 0.537205C0.869112 0.511998 0.934234 0.499023 1 0.499023C1.06577 0.499023 1.13089 0.511998 1.19163 0.537205C1.25238 0.562411 1.30756 0.599354 1.354 0.645917L7.354 6.64592C7.40056 6.69236 7.43751 6.74754 7.46271 6.80828C7.48792 6.86903 7.50089 6.93415 7.50089 6.99992C7.50089 7.06568 7.48792 7.13081 7.46271 7.19155C7.43751 7.2523 7.40056 7.30747 7.354 7.35392L1.354 13.3539C1.26011 13.4478 1.13278 13.5005 1 13.5005C0.867225 13.5005 0.739888 13.4478 0.646001 13.3539C0.552114 13.26 0.499369 13.1327 0.499369 12.9999C0.499369 12.8671 0.552114 12.7398 0.646001 12.6459L6.293 6.99992L0.646001 1.35392C0.599438 1.30747 0.562495 1.2523 0.537288 1.19155C0.512082 1.13081 0.499107 1.06568 0.499107 0.999917C0.499107 0.93415 0.512082 0.869029 0.537288 0.808284C0.562495 0.747539 0.599438 0.692363 0.646001 0.645917Z" fill="#E1317F"/>
</svg>
