<svg width="240" height="102" viewBox="0 0 240 102" fill="none" xmlns="http://www.w3.org/2000/svg">
<g clip-path="url(#clip0_1_14)">
<path d="M62.0259 31.5966C61.2591 33.0914 60.218 34.2406 58.9017 35.0467C57.5842 35.8528 56.1009 36.2543 54.4505 36.2543C52.8001 36.2543 51.2965 35.8528 49.9415 35.0467C48.5852 34.2406 47.5237 33.0914 46.7576 31.5966C45.9909 30.1044 45.6084 28.3747 45.6084 26.4105C45.6084 24.4043 45.9909 22.6568 46.7576 21.1633C47.5237 19.6698 48.5852 18.5206 49.9415 17.7145C51.2965 16.9084 52.8001 16.5056 54.4505 16.5056C56.1009 16.5056 57.5842 16.9084 58.9017 17.7145C60.218 18.5206 61.2591 19.6698 62.0259 21.1633C62.792 22.6568 63.175 24.4043 63.175 26.4105C63.175 28.3747 62.792 30.1044 62.0259 31.5966ZM62.8218 12.7615C60.6995 11.4465 58.3605 10.7877 55.8068 10.7877C54.2536 10.7877 52.8827 11.0056 51.6764 11.4192C51.4979 11.6027 48.8749 14.3216 48.3483 14.8673C47.6254 15.6156 47.0009 16.4326 46.4768 16.4326H46.0639C45.792 16.4326 45.611 16.1988 45.611 15.925L45.6097 13.4767L45.6084 11.4948H39.1823V52.4666H45.6084V36.9626H45.785C46.0995 37.4727 46.6884 38.1327 47.5536 38.9357C48.4175 39.7418 49.5381 40.4495 50.9134 41.0587C52.2894 41.6679 53.9201 41.9735 55.8068 41.9735C58.3605 41.9735 60.6995 41.3134 62.8218 39.9972C64.9436 38.6816 66.6327 36.8343 67.8911 34.4565C69.1483 32.0794 69.7778 29.3974 69.7778 26.4105C69.7778 23.3835 69.1483 20.6818 67.8911 18.3034C66.6327 15.9256 64.9436 14.0796 62.8218 12.7615Z" fill="white"/>
<path d="M98.9419 31.5966C98.1752 33.0914 97.134 34.2406 95.8177 35.0467C94.5002 35.8528 93.0169 36.2543 91.3665 36.2543C89.7161 36.2543 88.2125 35.8528 86.8575 35.0467C85.5013 34.2406 84.4397 33.0914 83.6736 31.5966C82.9069 30.1044 82.5245 28.3747 82.5245 26.4105C82.5245 24.4043 82.9069 22.6568 83.6736 21.1633C84.4397 19.6698 85.5013 18.5206 86.8575 17.7145C88.2125 16.9084 89.7161 16.5056 91.3665 16.5056C93.0169 16.5056 94.5002 16.9084 95.8177 17.7145C97.134 18.5206 98.1752 19.6698 98.9419 21.1633C99.708 22.6568 100.091 24.4043 100.091 26.4105C100.091 28.3747 99.708 30.1044 98.9419 31.5966ZM99.7379 12.7615C97.6155 11.4465 95.2765 10.7877 92.7228 10.7877C91.1696 10.7877 89.7994 11.0056 88.5924 11.4192C88.4139 11.6034 85.7909 14.3216 85.2643 14.8673C84.5414 15.6156 83.9169 16.4326 83.3929 16.4326H82.9799C82.7081 16.4326 82.527 16.1988 82.527 15.925L82.5245 11.4948H76.0983V52.4666H82.5245V36.9626H82.7011C83.0155 37.4727 83.6044 38.1327 84.4696 38.9357C85.3335 39.7418 86.4541 40.4495 87.8295 41.0587C89.2054 41.6679 90.8361 41.9735 92.7228 41.9735C95.2765 41.9735 97.6155 41.3134 99.7379 39.9972C101.86 38.6816 103.549 36.8343 104.807 34.4565C106.064 32.0794 106.694 29.3974 106.694 26.4105C106.694 23.3835 106.064 20.6818 104.807 18.3034C103.549 15.9256 101.86 14.0796 99.7379 12.7615Z" fill="white"/>
<path d="M113.014 41.2656H119.44V-0.000277464H113.014V41.2656Z" fill="white"/>
<path d="M132.54 23.4615C132.854 22.2044 133.404 21.0457 134.191 19.9848C134.975 18.9233 135.989 18.0784 137.226 17.4495C138.464 16.82 139.829 16.5055 141.323 16.5055C142.856 16.5055 144.242 16.82 145.479 17.4495C146.717 18.0784 147.72 18.9233 148.486 19.9848C149.253 21.0457 149.734 22.2044 149.93 23.4615H132.54ZM149.281 12.8217C146.924 11.4648 144.27 10.7876 141.323 10.7876C138.415 10.7876 135.782 11.4648 133.424 12.8217C131.066 14.1761 129.198 16.0545 127.824 18.4519C126.448 20.8481 125.76 23.5022 125.76 26.4097C125.76 29.3186 126.448 31.9599 127.824 34.3389C129.198 36.7167 131.066 38.5837 133.424 39.9387C135.782 41.2949 138.415 41.9734 141.323 41.9734C145.293 41.9734 148.545 40.9906 151.08 39.0239C153.614 37.0603 155.373 34.6623 156.356 31.8329H149.636C148.967 33.0913 147.926 34.1414 146.511 34.9869C145.096 35.8318 143.366 36.2542 141.323 36.2542C139.829 36.2542 138.435 35.8921 137.138 35.1635C135.841 34.4368 134.77 33.4445 133.925 32.1873C133.08 30.9295 132.559 29.5345 132.363 28.0004H156.827V26.2325C156.827 23.4031 156.159 20.8005 154.823 18.4227C153.487 16.045 151.64 14.1761 149.281 12.8217Z" fill="white"/>
<path d="M23.0209 31.5967C22.2541 33.0914 21.1926 34.2406 19.837 35.0467C18.4814 35.8529 16.9784 36.2543 15.3273 36.2543C13.677 36.2543 12.1936 35.8529 10.8774 35.0467C9.55989 34.2406 8.51872 33.0914 7.75261 31.5967C6.98586 30.1045 6.6028 28.3747 6.6028 26.4105C6.6028 24.4044 6.98586 22.6568 7.75261 21.1633C8.51872 19.6698 9.55989 18.5207 10.8774 17.7145C12.1936 16.9084 13.677 16.5056 15.3273 16.5056C16.9784 16.5056 18.4814 16.9084 19.837 17.7145C21.1926 18.5207 22.2541 19.6698 23.0209 21.1633C23.787 22.6568 24.17 24.4044 24.17 26.4105C24.17 28.3747 23.787 30.1045 23.0209 31.5967ZM24.1669 15.925C24.1669 16.1988 23.9864 16.4326 23.7139 16.4326H23.3023C22.7769 16.4326 22.1525 15.6157 21.4296 14.8673C20.9036 14.3217 18.28 11.6034 18.1027 11.4192C16.8958 11.0056 15.5249 10.7878 13.9711 10.7878C11.4174 10.7878 9.07837 11.4465 6.95663 12.7615C4.83426 14.0796 3.14512 15.9257 1.88669 18.3034C0.629531 20.6818 0 23.3835 0 26.4105C0 29.3974 0.629531 32.0795 1.88669 34.4566C3.14512 36.8343 4.83426 38.6816 6.95663 39.9972C9.07837 41.3135 11.4174 41.9735 13.9711 41.9735C15.8578 41.9735 17.4891 41.6679 18.8644 41.0587C20.241 40.4495 21.3609 39.7419 22.2243 38.9357C23.0895 38.1328 23.6796 37.4727 23.9928 36.9626H24.17V41.2658H30.5956V11.4948H24.17L24.1669 15.925Z" fill="white"/>
<path d="M96.8461 77.4381C96.8461 79.1679 96.4923 80.7116 95.7846 82.0659C95.0776 83.4228 94.1044 84.464 92.8669 85.1907C91.6288 85.9181 90.2434 86.2808 88.7105 86.2808C86.5487 86.2808 84.8291 85.6329 83.5522 84.3351C82.2748 83.0391 81.637 81.1334 81.637 78.6172V61.5219H75.2108V79.3248C75.2108 83.3339 76.2627 86.4479 78.3648 88.6694C80.4668 90.8896 83.3464 92 87.001 92C88.37 92 89.6183 91.798 90.7738 91.4384C90.9923 91.2116 91.7133 90.4646 94.1089 87.9827C94.8324 87.2331 95.4556 86.4161 95.9809 86.4161H96.3926C96.6651 86.4161 96.8461 86.6499 96.8461 86.925L96.8487 91.2917H103.331V61.5219H96.8461V77.4381Z" fill="white"/>
<path d="M130.314 74.9613C128.723 74.3724 126.668 73.8039 124.153 73.2531C122.541 72.8986 121.284 72.5848 120.381 72.3091C119.476 72.0353 118.73 71.6707 118.141 71.2184C117.551 70.7674 117.256 70.1874 117.256 69.4803C117.256 68.929 117.453 68.4188 117.845 67.9475C118.239 67.4755 118.827 67.0918 119.614 66.7977C120.4 66.5029 121.382 66.3555 122.561 66.3555C124.409 66.3555 125.902 66.7189 127.042 67.4456C128.181 68.173 128.948 69.0484 129.341 70.0692H135.944C135.355 67.4755 133.939 65.2851 131.699 63.495C129.459 61.7093 126.413 60.8149 122.561 60.8149C120.046 60.8149 117.895 61.2075 116.107 61.9933C114.318 62.7803 112.961 63.8406 112.039 65.1765C111.115 66.5131 110.654 67.9475 110.654 69.4803C110.654 71.6027 111.242 73.2823 112.422 74.5191C113.601 75.7579 114.987 76.6727 116.577 77.2615C118.171 77.8504 120.222 78.4209 122.739 78.971C124.35 79.3242 125.607 79.6393 126.512 79.915C127.415 80.1907 128.162 80.554 128.751 81.0038C129.341 81.4567 129.636 82.0367 129.636 82.7437C129.636 83.884 129.144 84.7874 128.162 85.4556C127.179 86.1239 125.607 86.4581 123.446 86.4581C121.48 86.4581 119.86 86.0153 118.583 85.1304C117.305 84.2468 116.411 83.1573 115.9 81.8595H109.18C109.652 83.6674 110.476 85.3286 111.656 86.8411C112.834 88.3543 114.406 89.5911 116.372 90.5548C118.336 91.5172 120.695 92 123.446 92C126.118 92 128.427 91.5756 130.373 90.7314C132.318 89.8871 133.782 88.7678 134.764 87.3716C135.747 85.9772 136.238 84.4329 136.238 82.7437C136.238 80.622 135.649 78.9418 134.47 77.703C133.291 76.4649 131.905 75.5514 130.314 74.9613Z" fill="white"/>
<path d="M147.451 73.4881C147.766 72.231 148.315 71.0723 149.102 70.0114C149.887 68.9499 150.9 68.105 152.138 67.4761C153.376 66.8466 154.741 66.5321 156.235 66.5321C157.768 66.5321 159.153 66.8466 160.391 67.4761C161.629 68.105 162.631 68.9499 163.397 70.0114C164.164 71.0723 164.645 72.231 164.842 73.4881H147.451ZM171.739 76.2591C171.739 73.4297 171.07 70.8271 169.734 68.4493C168.399 66.0716 166.551 64.2027 164.193 62.8483C161.835 61.4914 159.182 60.8142 156.235 60.8142C153.326 60.8142 150.693 61.4914 148.335 62.8483C145.977 64.2027 144.11 66.0811 142.735 68.4786C141.359 70.8747 140.672 73.5288 140.672 76.4363C140.672 79.3452 141.359 81.9865 142.735 84.3655C144.11 86.7433 145.977 88.6103 148.335 89.9653C150.693 91.3215 153.326 92 156.235 92C160.204 92 163.456 91.0173 165.992 89.0505C168.526 87.087 170.285 84.6889 171.267 81.8595H164.547C163.879 83.1179 162.838 84.168 161.423 85.0135C160.008 85.8584 158.278 86.2808 156.235 86.2808C154.741 86.2808 153.346 85.9187 152.05 85.1901C150.753 84.4634 149.682 83.4711 148.837 82.214C147.991 80.9562 147.47 79.5611 147.275 78.027H171.739V76.2591Z" fill="white"/>
<path d="M18.7107 60.8143C17.343 60.8143 16.0947 61.0163 14.9386 61.3758C14.7207 61.6026 13.999 62.3497 11.6035 64.8316C10.8806 65.5812 10.2561 66.3981 9.73077 66.3981H9.31913C9.0466 66.3981 8.8662 66.1631 8.8662 65.8893L8.86558 50.0252H2.3822V91.2924H8.86558V75.3761C8.86558 73.6463 9.21941 72.1027 9.92708 70.7483C10.6354 69.3914 11.6073 68.3503 12.846 67.6235C14.0829 66.8962 15.4684 66.5334 17.0012 66.5334C19.163 66.5334 20.8826 67.1814 22.1595 68.4792C23.437 69.7751 24.0754 71.6815 24.0754 74.1971V91.2924H30.5009V73.4894C30.5009 69.4797 29.4502 66.3664 27.3469 64.1449C25.2455 61.9247 22.3653 60.8143 18.7107 60.8143Z" fill="white"/>
<path d="M57.5315 57.6621C59.206 57.1851 60.7192 56.2805 62.0272 54.9719C63.3339 53.6645 64.2397 52.1513 64.7162 50.4774C65.1157 49.0716 65.1799 47.6607 64.9468 46.2702C63.5441 46.0262 62.1288 46.0834 60.7236 46.4843C59.0485 46.9613 57.5359 47.8666 56.2292 49.1739C54.9206 50.4819 54.016 51.9944 53.5389 53.669C53.1387 55.0729 53.0796 56.4895 53.3242 57.8915C54.7161 58.1246 56.1269 58.0611 57.5315 57.6621Z" fill="#BE31A0"/>
<path d="M61.1975 81.5654C60.3914 83.0588 59.2816 84.2175 57.8669 85.0421C56.4528 85.8686 54.8609 86.2808 53.0917 86.2808C51.3626 86.2808 49.7903 85.8686 48.3762 85.0421C46.9615 84.2175 45.8499 83.0588 45.0444 81.5654C44.2395 80.0719 43.8367 78.3618 43.8367 76.4357C43.8367 74.4715 44.2395 72.7424 45.0444 71.2495C45.8499 69.7554 46.9615 68.5954 48.3762 67.7702C49.7903 66.9451 51.3626 66.5315 53.0917 66.5315C54.8609 66.5315 56.4528 66.9451 57.8669 67.7702C59.2816 68.5954 60.3914 69.7554 61.1975 71.2495C62.003 72.7424 62.4064 74.4715 62.4064 76.4357C62.4064 78.3618 62.003 80.0719 61.1975 81.5654ZM66.3831 81.0724C65.5966 79.659 65.1964 78.0683 65.1964 76.3493C65.1964 74.6303 65.5966 73.0409 66.3831 71.6275C66.7401 70.9852 67.1708 70.4135 67.6568 69.8964C67.4421 69.4155 67.2108 68.9404 66.9447 68.4779C65.5693 66.0811 63.6737 64.2033 61.256 62.849C58.8401 61.4921 56.118 60.8142 53.0917 60.8142C50.1041 60.8142 47.403 61.4921 44.9866 62.849C42.5688 64.2033 40.6719 66.0811 39.2972 68.4779C37.9219 70.8754 37.2339 73.5282 37.2339 76.4357C37.2339 79.3452 37.9219 81.9872 39.2972 84.3649C40.6719 86.7439 42.5688 88.6097 44.9866 89.9659C47.403 91.3209 50.1041 92 53.0917 92C56.118 92 58.8401 91.3209 61.256 89.9659C63.6737 88.6097 65.5693 86.7439 66.9447 84.3649C67.2299 83.8726 67.4783 83.3657 67.7044 82.8498C67.1994 82.3219 66.7515 81.7337 66.3831 81.0724Z" fill="white"/>
</g>
<defs>
<clipPath id="clip0_1_14">
<rect width="240" height="102" fill="white"/>
</clipPath>
</defs>
</svg>
