<svg width="377" height="102" viewBox="0 0 377 102" fill="none" xmlns="http://www.w3.org/2000/svg">
<path d="M67.8735 58.8451C67.0345 60.4808 65.8952 61.7383 64.4548 62.6205C63.0131 63.5026 61.39 63.9419 59.584 63.9419C57.778 63.9419 56.1326 63.5026 54.6499 62.6205C53.1658 61.7383 52.0042 60.4808 51.1658 58.8451C50.3268 57.2123 49.9083 55.3194 49.9083 53.17C49.9083 50.9748 50.3268 49.0624 51.1658 47.4281C52.0042 45.7939 53.1658 44.5364 54.6499 43.6542C56.1326 42.7721 57.778 42.3314 59.584 42.3314C61.39 42.3314 63.0131 42.7721 64.4548 43.6542C65.8952 44.5364 67.0345 45.7939 67.8735 47.4281C68.7119 49.0624 69.1311 50.9748 69.1311 53.17C69.1311 55.3194 68.7119 57.2123 67.8735 58.8451ZM68.7446 38.2342C66.4221 36.7953 63.8626 36.0744 61.0681 36.0744C59.3685 36.0744 57.8684 36.3128 56.5483 36.7654C56.353 36.9663 53.4827 39.9415 52.9065 40.5386C52.1154 41.3575 51.4321 42.2514 50.8586 42.2514H50.4067C50.1092 42.2514 49.9111 41.9956 49.9111 41.696L49.9097 39.0169L49.9083 36.8481H42.8763V81.6826H49.9083V64.717H50.1016C50.4457 65.2752 51.0901 65.9975 52.0369 66.8761C52.9822 67.7582 54.2085 68.5326 55.7134 69.1993C57.2191 69.8659 59.0036 70.2003 61.0681 70.2003C63.8626 70.2003 66.4221 69.478 68.7446 68.0377C71.0663 66.5981 72.9147 64.5766 74.2918 61.9747C75.6675 59.3735 76.3564 56.4386 76.3564 53.17C76.3564 49.8577 75.6675 46.9012 74.2918 44.2986C72.9147 41.6967 71.0663 39.6766 68.7446 38.2342Z" fill="white"/>
<path d="M108.27 58.8451C107.431 60.4808 106.291 61.7383 104.851 62.6205C103.409 63.5026 101.786 63.9419 99.9801 63.9419C98.1741 63.9419 96.5287 63.5026 95.046 62.6205C93.5618 61.7383 92.4002 60.4808 91.5619 58.8451C90.7229 57.2123 90.3044 55.3194 90.3044 53.17C90.3044 50.9748 90.7229 49.0624 91.5619 47.4281C92.4002 45.7939 93.5618 44.5364 95.046 43.6542C96.5287 42.7721 98.1741 42.3314 99.9801 42.3314C101.786 42.3314 103.409 42.7721 104.851 43.6542C106.291 44.5364 107.431 45.7939 108.27 47.4281C109.108 49.0624 109.527 50.9748 109.527 53.17C109.527 55.3194 109.108 57.2123 108.27 58.8451ZM109.141 38.2342C106.818 36.7953 104.259 36.0744 101.464 36.0744C99.7646 36.0744 98.2652 36.3128 96.9444 36.7654C96.7491 36.967 93.8788 39.9415 93.3025 40.5386C92.5115 41.3575 91.8281 42.2514 91.2546 42.2514H90.8028C90.5053 42.2514 90.3072 41.9956 90.3072 41.696L90.3044 36.8481H83.2723V81.6826H90.3044V64.717H90.4976C90.8417 65.2752 91.4861 65.9975 92.4329 66.8761C93.3783 67.7582 94.6045 68.5326 96.1095 69.1993C97.6152 69.8659 99.3996 70.2003 101.464 70.2003C104.259 70.2003 106.818 69.478 109.141 68.0377C111.462 66.5981 113.311 64.5766 114.688 61.9747C116.064 59.3735 116.752 56.4386 116.752 53.17C116.752 49.8577 116.064 46.9012 114.688 44.2986C113.311 41.6967 111.462 39.6766 109.141 38.2342Z" fill="white"/>
<path d="M123.668 69.4259H130.7V24.2696H123.668V69.4259Z" fill="white"/>
<path d="M145.035 49.9432C145.378 48.5675 145.98 47.2996 146.842 46.1387C147.7 44.9771 148.809 44.0526 150.163 43.3644C151.518 42.6755 153.012 42.3314 154.647 42.3314C156.324 42.3314 157.84 42.6755 159.194 43.3644C160.549 44.0526 161.646 44.9771 162.484 46.1387C163.323 47.2996 163.85 48.5675 164.065 49.9432H145.035ZM163.355 38.3003C160.775 36.8155 157.871 36.0744 154.647 36.0744C151.464 36.0744 148.582 36.8155 146.003 38.3003C143.422 39.7823 141.379 41.8379 139.874 44.4613C138.369 47.0834 137.616 49.9877 137.616 53.1694C137.616 56.3524 138.369 59.2428 139.874 61.8461C141.379 64.448 143.422 66.491 146.003 67.9738C148.582 69.4579 151.464 70.2003 154.647 70.2003C158.99 70.2003 162.549 69.1249 165.323 66.9728C168.096 64.8241 170.021 62.1999 171.097 59.1038H163.743C163.011 60.4808 161.872 61.6299 160.323 62.5551C158.775 63.4797 156.882 63.942 154.647 63.942C153.012 63.942 151.486 63.5457 150.066 62.7484C148.648 61.9531 147.476 60.8673 146.55 59.4917C145.626 58.1153 145.056 56.5887 144.841 54.91H171.612V52.9754C171.612 49.8793 170.881 47.0312 169.419 44.4293C167.957 41.8274 165.936 39.7823 163.355 38.3003Z" fill="white"/>
<path d="M25.1912 58.8452C24.3522 60.4808 23.1906 61.7384 21.7072 62.6205C20.2237 63.5026 18.579 63.942 16.7724 63.942C14.9664 63.942 13.3432 63.5026 11.9029 62.6205C10.4612 61.7384 9.32185 60.4808 8.48351 58.8452C7.64447 57.2123 7.22529 55.3194 7.22529 53.1701C7.22529 50.9748 7.64447 49.0625 8.48351 47.4282C9.32185 45.7939 10.4612 44.5364 11.9029 43.6543C13.3432 42.7721 14.9664 42.3314 16.7724 42.3314C18.579 42.3314 20.2237 42.7721 21.7072 43.6543C23.1906 44.5364 24.3522 45.7939 25.1912 47.4282C26.0296 49.0625 26.4487 50.9748 26.4487 53.1701C26.4487 55.3194 26.0296 57.2123 25.1912 58.8452ZM26.4453 41.696C26.4453 41.9957 26.2478 42.2515 25.9496 42.2515H25.4992C24.9243 42.2515 24.241 41.3575 23.4499 40.5386C22.8743 39.9415 20.0034 36.967 19.8094 36.7654C18.4887 36.3129 16.9886 36.0744 15.2882 36.0744C12.4938 36.0744 9.93426 36.7953 7.61249 38.2342C5.29003 39.6767 3.44164 41.6967 2.06457 44.2987C0.688881 46.9013 0 49.8577 0 53.1701C0 56.4386 0.688881 59.3735 2.06457 61.9747C3.44164 64.5766 5.29003 66.5981 7.61249 68.0377C9.93426 69.4781 12.4938 70.2003 15.2882 70.2003C17.3528 70.2003 19.1379 69.8659 20.6429 69.1993C22.1493 68.5327 23.3748 67.7583 24.3195 66.8761C25.2663 65.9975 25.9121 65.2752 26.2548 64.717H26.4487V69.4259H33.4801V36.8481H26.4487L26.4453 41.696Z" fill="white"/>
<path d="M295.047 54.2656C295.047 56.1584 294.66 57.8476 293.885 59.3297C293.112 60.8145 292.047 61.9538 290.693 62.7491C289.338 63.545 287.822 63.942 286.144 63.942C283.779 63.942 281.897 63.2329 280.5 61.8127C279.102 60.3946 278.404 58.3092 278.404 55.5558V36.8488H271.372V56.3302C271.372 60.7172 272.523 64.1248 274.823 66.5557C277.124 68.9852 280.275 70.2003 284.274 70.2003C285.772 70.2003 287.138 69.9793 288.402 69.5858C288.641 69.3376 289.43 68.5202 292.052 65.8042C292.843 64.984 293.525 64.09 294.1 64.09H294.551C294.849 64.09 295.047 64.3458 295.047 64.6468L295.05 69.4252H302.143V36.8488H295.047V54.2656Z" fill="white"/>
<path d="M331.67 51.5552C329.929 50.9108 327.681 50.2887 324.929 49.686C323.164 49.2981 321.789 48.9547 320.8 48.653C319.81 48.3534 318.993 47.9544 318.349 47.4595C317.703 46.9659 317.381 46.3313 317.381 45.5576C317.381 44.9542 317.596 44.396 318.026 43.8802C318.456 43.3637 319.1 42.9438 319.961 42.622C320.821 42.2994 321.896 42.1382 323.187 42.1382C325.208 42.1382 326.842 42.5358 328.089 43.331C329.336 44.127 330.175 45.0849 330.605 46.2019H337.83C337.186 43.3637 335.637 40.9668 333.186 39.0079C330.734 37.0539 327.401 36.0751 323.187 36.0751C320.434 36.0751 318.08 36.5047 316.124 37.3646C314.166 38.2259 312.682 39.3861 311.672 40.848C310.661 42.3106 310.156 43.8802 310.156 45.5576C310.156 47.88 310.8 49.718 312.091 51.0714C313.382 52.4269 314.898 53.428 316.638 54.0723C318.382 54.7167 320.627 55.341 323.38 55.943C325.143 56.3295 326.519 56.6743 327.51 56.976C328.498 57.2776 329.315 57.6753 329.96 58.1674C330.605 58.6631 330.928 59.2977 330.928 60.0714C330.928 61.3192 330.39 62.3077 329.315 63.039C328.239 63.7703 326.519 64.1359 324.155 64.1359C322.003 64.1359 320.23 63.6514 318.833 62.6831C317.435 61.7161 316.456 60.5239 315.897 59.1038H308.543C309.06 61.0821 309.962 62.8999 311.253 64.5551C312.542 66.2109 314.262 67.5643 316.414 68.6189C318.563 69.672 321.144 70.2003 324.155 70.2003C327.079 70.2003 329.605 69.7359 331.735 68.8121C333.863 67.8883 335.465 66.6634 336.539 65.1355C337.615 63.6097 338.153 61.9198 338.153 60.0714C338.153 57.7496 337.508 55.911 336.218 54.5555C334.928 53.2006 333.411 52.201 331.67 51.5552Z" fill="white"/>
<path d="M350.423 49.9432C350.767 48.5675 351.368 47.2996 352.229 46.1387C353.089 44.9771 354.197 44.0526 355.552 43.3644C356.906 42.6755 358.4 42.3314 360.035 42.3314C361.712 42.3314 363.228 42.6755 364.582 43.3644C365.937 44.0526 367.034 44.9771 367.872 46.1387C368.711 47.2996 369.238 48.5675 369.453 49.9432H350.423ZM377 52.9754C377 49.8793 376.269 47.0312 374.807 44.4293C373.345 41.8274 371.324 39.7823 368.743 38.3003C366.163 36.8155 363.26 36.0744 360.035 36.0744C356.851 36.0744 353.971 36.8155 351.39 38.3003C348.81 39.7823 346.766 41.8379 345.262 44.4613C343.756 47.0834 343.004 49.9877 343.004 53.1694C343.004 56.3524 343.756 59.2428 345.262 61.8461C346.766 64.448 348.81 66.491 351.39 67.9738C353.971 69.4579 356.851 70.2003 360.035 70.2003C364.378 70.2003 367.937 69.1249 370.711 66.9728C373.484 64.8241 375.409 62.1999 376.484 59.1038H369.13C368.399 60.4808 367.26 61.6299 365.712 62.5551C364.163 63.4797 362.27 63.942 360.035 63.942C358.4 63.942 356.874 63.5457 355.455 62.7484C354.035 61.9531 352.863 60.8673 351.939 59.4917C351.014 58.1153 350.444 56.5887 350.23 54.91H377V52.9754Z" fill="white"/>
<path d="M209.545 36.0744C208.049 36.0744 206.683 36.2955 205.418 36.6889C205.179 36.9371 204.39 37.7546 201.768 40.4705C200.977 41.2908 200.294 42.1847 199.719 42.1847H199.268C198.97 42.1847 198.773 41.9275 198.773 41.6279L198.772 24.2682H191.677V69.4259H198.772V52.0091C198.772 50.1163 199.159 48.4271 199.934 46.945C200.709 45.4602 201.772 44.3209 203.128 43.5256C204.481 42.7297 205.997 42.3328 207.675 42.3328C210.04 42.3328 211.922 43.0418 213.319 44.462C214.717 45.8801 215.416 47.9662 215.416 50.719V69.4259H222.447V49.9446C222.447 45.5568 221.297 42.15 218.996 39.7191C216.696 37.2895 213.545 36.0744 209.545 36.0744Z" fill="white"/>
<path d="M252.026 32.6251C253.859 32.103 255.515 31.1132 256.946 29.6812C258.376 28.2506 259.367 26.5947 259.888 24.763C260.326 23.2247 260.396 21.6808 260.141 20.1591C258.606 19.8922 257.057 19.9548 255.519 20.3934C253.686 20.9154 252.031 21.906 250.601 23.3366C249.169 24.7679 248.179 26.423 247.657 28.2554C247.219 29.7917 247.155 31.3419 247.422 32.876C248.945 33.1312 250.489 33.0616 252.026 32.6251Z" fill="#BE31A0"/>
<path d="M256.038 58.7819C255.156 60.4162 253.941 61.6841 252.393 62.5864C250.846 63.4908 249.104 63.942 247.168 63.942C245.276 63.942 243.555 63.4908 242.008 62.5864C240.46 61.6841 239.243 60.4162 238.362 58.7819C237.481 57.1477 237.04 55.2763 237.04 53.1687C237.04 51.0193 237.481 49.1271 238.362 47.4935C239.243 45.8585 240.46 44.5892 242.008 43.6862C243.555 42.7832 245.276 42.3307 247.168 42.3307C249.104 42.3307 250.846 42.7832 252.393 43.6862C253.941 44.5892 255.156 45.8585 256.038 47.4935C256.919 49.1271 257.361 51.0193 257.361 53.1687C257.361 55.2763 256.919 57.1477 256.038 58.7819ZM261.712 58.2425C260.852 56.6958 260.414 54.9552 260.414 53.0741C260.414 51.1931 260.852 49.4538 261.712 47.9071C262.103 47.2043 262.574 46.5787 263.106 46.0129C262.871 45.4866 262.618 44.9667 262.327 44.4606C260.822 41.8379 258.748 39.783 256.102 38.301C253.458 36.8162 250.48 36.0744 247.168 36.0744C243.899 36.0744 240.943 36.8162 238.299 38.301C235.653 39.783 233.577 41.8379 232.073 44.4606C230.568 47.0841 229.815 49.987 229.815 53.1687C229.815 56.3524 230.568 59.2435 232.073 61.8454C233.577 64.4487 235.653 66.4903 238.299 67.9745C240.943 69.4572 243.899 70.2003 247.168 70.2003C250.48 70.2003 253.458 69.4572 256.102 67.9745C258.748 66.4903 260.822 64.4487 262.327 61.8454C262.639 61.3067 262.911 60.752 263.158 60.1875C262.606 59.6098 262.115 58.9661 261.712 58.2425Z" fill="white"/>
</svg>
