<svg width="39" height="61" viewBox="0 0 39 61" fill="none" xmlns="http://www.w3.org/2000/svg">
<g clip-path="url(#clip0_100_852)">
<path fill-rule="evenodd" clip-rule="evenodd" d="M8.42241 6.55361C8.57498 6.37812 8.75622 6.2389 8.95576 6.1439C9.1553 6.0489 9.36922 6 9.58525 6C9.80129 6 10.0152 6.0489 10.2147 6.1439C10.4143 6.2389 10.5955 6.37812 10.7481 6.55361L30.4574 29.1663C30.6103 29.3414 30.7317 29.5493 30.8145 29.7783C30.8973 30.0072 30.9399 30.2526 30.9399 30.5005C30.9399 30.7484 30.8973 30.9938 30.8145 31.2227C30.7317 31.4517 30.6103 31.6596 30.4574 31.8346L10.7481 54.4474C10.4397 54.8012 10.0214 55 9.58525 55C9.1491 55 8.73081 54.8012 8.42241 54.4474C8.114 54.0935 7.94074 53.6136 7.94074 53.1132C7.94074 52.6128 8.114 52.1329 8.42241 51.7791L26.9721 30.5005L8.42241 9.22191C8.26945 9.04687 8.1481 8.83893 8.0653 8.60999C7.9825 8.38105 7.93988 8.13563 7.93988 7.88776C7.93988 7.6399 7.9825 7.39447 8.0653 7.16554C8.1481 6.9366 8.26945 6.72866 8.42241 6.55361V6.55361Z" fill="#E1317F"/>
</g>
<defs>
<clipPath id="clip0_100_852">
<rect width="39" height="61" fill="white" transform="matrix(-1 0 0 1 39 0)"/>
</clipPath>
</defs>
</svg>
