<svg width="39" height="61" viewBox="0 0 39 61" fill="none" xmlns="http://www.w3.org/2000/svg">
<path fill-rule="evenodd" clip-rule="evenodd" d="M30.5175 6.55361C30.3649 6.37812 30.1837 6.2389 29.9841 6.1439C29.7846 6.0489 29.5707 6 29.3546 6C29.1386 6 28.9247 6.0489 28.7251 6.1439C28.5256 6.2389 28.3443 6.37812 28.1918 6.55361L8.48253 29.1663C8.32957 29.3414 8.20822 29.5493 8.12542 29.7783C8.04262 30.0072 8 30.2526 8 30.5005C8 30.7484 8.04262 30.9938 8.12542 31.2227C8.20822 31.4517 8.32957 31.6596 8.48253 31.8346L28.1918 54.4474C28.5002 54.8012 28.9185 55 29.3546 55C29.7908 55 30.2091 54.8012 30.5175 54.4474C30.8259 54.0935 30.9991 53.6136 30.9991 53.1132C30.9991 52.6128 30.8259 52.1329 30.5175 51.7791L11.9678 30.5005L30.5175 9.22191C30.6704 9.04687 30.7918 8.83893 30.8746 8.60999C30.9574 8.38105 31 8.13563 31 7.88776C31 7.6399 30.9574 7.39447 30.8746 7.16554C30.7918 6.9366 30.6704 6.72866 30.5175 6.55361V6.55361Z" fill="#E1317F"/>
</svg>
