<svg width="64" height="64" viewBox="0 0 64 64" fill="none" xmlns="http://www.w3.org/2000/svg">
<path d="M32 0C14.3267 0 0 14.3267 0 32C0 49.6733 14.3267 64 32 64C49.6733 64 64 49.6733 64 32C64 14.3267 49.6733 0 32 0Z" fill="#40B3E0"/>
<path d="M47.5713 18.4073L41.8558 47.224C41.8558 47.224 41.0566 49.2225 38.8583 48.2633L25.6688 38.1513L20.8728 35.8333L12.7993 33.1153C12.7993 33.1153 11.5603 32.6758 11.4403 31.7165C11.3206 30.7573 12.8393 30.2378 12.8393 30.2378L44.9333 17.6478C44.9333 17.6478 47.5713 16.4888 47.5713 18.4073Z" fill="white"/>
<path d="M24.6553 46.9C24.6553 46.9 24.2703 46.864 23.7905 45.345C23.311 43.8262 20.873 35.8327 20.873 35.8327L40.2573 23.5227C40.2573 23.5227 41.3765 22.8432 41.3365 23.5227C41.3365 23.5227 41.5363 23.6425 40.9368 24.202C40.3373 24.7617 25.709 37.911 25.709 37.911" fill="#D2E5F1"/>
<path d="M30.7253 42.0297L25.5083 46.7862C25.5083 46.7862 25.1005 47.0957 24.6543 46.9017L25.6533 38.0664" fill="#B5CFE4"/>
</svg>
