<svg width="64" height="64" viewBox="0 0 64 64" fill="none" xmlns="http://www.w3.org/2000/svg">
<path d="M0 64L5.504 47.4891C2.71117 42.7917 1.10345 37.3098 1.10345 31.4483C1.10345 14.08 15.1834 0 32.5517 0C49.92 0 64 14.08 64 31.4483C64 48.8166 49.92 62.8966 32.5517 62.8966C27.2673 62.8966 22.2908 61.5868 17.92 59.285L0 64Z" fill="#2CB742"/>
<path d="M52.6164 41.9148C51.1642 39.1706 45.8092 36.0324 45.8092 36.0324C44.5976 35.3416 43.1355 35.2644 42.4448 36.4958C42.4448 36.4958 40.7046 38.5824 40.2622 38.8826C38.2406 40.2519 36.3681 40.199 34.4779 38.3088L30.0851 33.9159L25.6922 29.5231C23.802 27.6329 23.7491 25.7604 25.1184 23.7388C25.4186 23.2964 27.5052 21.5562 27.5052 21.5562C28.7366 20.8644 28.6594 19.4034 27.9686 18.1918C27.9686 18.1918 24.8304 12.8368 22.0862 11.3846C20.9187 10.7667 19.4853 10.983 18.5518 11.9165L16.612 13.8564C10.458 20.0103 13.4881 26.9576 19.642 33.1115L25.2663 38.7358L30.8906 44.3601C37.0445 50.514 43.9918 53.5441 50.1457 47.3902L52.0856 45.4503C53.0191 44.5146 53.2343 43.0812 52.6164 41.9148Z" fill="white"/>
</svg>
